# Blender v2.93.4 OBJ File: 'Tower.blend'
# www.blender.org
mtllib Tower.mtl
o Tower
v -10.170385 27.829615 6.170386
v -10.170385 50.170387 6.170386
v -10.170385 27.829615 -6.170386
v -10.170385 50.170387 -6.170386
v 10.170385 27.829615 6.170386
v 10.170385 50.170387 6.170386
v 10.170385 27.829599 -6.170386
v 10.170385 50.170387 -6.170386
v 7.500000 27.829615 -6.170386
v 7.500000 50.170387 -6.170386
v 7.500000 27.829615 6.170386
v 7.500000 50.170387 6.170386
v -7.500000 27.829615 -6.170386
v -7.500000 50.170387 6.170386
v -7.500000 50.170387 -6.170386
v -7.500000 27.829615 6.170386
v -7.500000 50.170387 -4.000000
v 7.500000 50.170387 -4.000000
v 7.500000 27.829615 -4.000000
v -7.500000 27.829615 -4.000000
v -7.500000 27.829615 4.000000
v 7.500000 27.829615 4.000000
v 7.500000 50.170387 4.000000
v -7.500000 50.170387 4.000000
v 10.170385 59.999996 6.170386
v 10.170385 59.999996 -6.170386
v 7.500000 59.999996 -6.170386
v 7.500000 59.999996 6.170386
v -10.170385 59.999996 6.170386
v -10.170385 59.999996 -6.170386
v -7.500000 59.999996 6.170386
v -7.500000 59.999996 -6.170386
v 0.500000 65.689415 -6.170386
v 0.500000 65.689415 6.170386
v -5.500000 65.689415 6.170386
v -5.500000 65.689415 -6.170386
v -3.154011 65.689415 -1.793155
v -3.154011 65.689415 -4.918197
v -4.673386 65.689415 -1.793155
v -4.673386 65.689415 -4.918197
v -3.154011 74.590103 -1.793155
v -3.154011 74.590103 -4.918197
v -4.673386 74.590103 -1.793155
v -4.673386 74.590103 -4.918197
v -10.170385 27.829599 -4.705851
v -10.170385 27.829599 4.705851
v -10.170385 45.519104 4.705851
v -10.170385 45.519104 -4.705851
v -11.999803 27.829599 -4.705851
v -11.999803 27.829599 4.705851
v -10.973920 45.519104 4.705851
v -10.973920 45.519104 -4.705851
v 10.170385 48.657543 -5.334709
v 10.170385 27.829599 -5.334709
v 10.170385 27.829599 5.334709
v 10.170385 48.657543 5.334709
v 10.735112 48.657543 -5.334709
v 11.569190 27.829599 -5.334709
v 11.569190 27.829599 5.334709
v 10.735112 48.657543 5.334709
v -10.127324 0.000007 6.170386
v -10.127324 0.000007 -6.170386
v 10.213447 0.000007 6.170386
v 10.213447 -0.000008 -6.170386
v 7.543061 0.000007 -6.170386
v 7.543061 0.000007 6.170386
v -7.456939 0.000007 -6.170386
v -7.456939 0.000007 6.170386
v 7.543061 0.000007 -4.000000
v -7.456939 0.000007 -4.000000
v -7.456939 0.000007 4.000000
v 7.543061 0.000007 4.000000
v -10.127324 -0.000008 -4.705851
v -10.127324 -0.000008 4.705851
v -11.956741 -0.000008 -4.705851
v -11.956741 -0.000008 4.705851
v 10.213447 -0.000008 -5.334709
v 10.213447 -0.000008 5.334709
v 11.612251 -0.000008 -5.334709
v 11.612251 -0.000008 5.334709
vt 0.625000 0.250000
vt 0.375000 0.250000
vt 0.375000 0.250000
vt 0.625000 0.250000
vt 0.375000 0.285734
vt 0.625000 0.285734
vt 0.625000 0.500000
vt 0.375000 0.500000
vt 0.625000 0.750000
vt 0.375000 0.750000
vt 0.375000 0.750000
vt 0.625000 0.750000
vt 0.375000 0.991770
vt 0.625000 0.991770
vt 0.625000 1.000000
vt 0.375000 1.000000
vt 0.625000 0.964266
vt 0.625000 0.750000
vt 0.625000 0.964266
vt 0.625000 0.258230
vt 0.625000 0.258230
vt 0.625000 0.285734
vt 0.375000 0.964266
vt 0.625000 0.991770
vt 0.625000 0.964266
vt 0.375000 0.258230
vt 0.625000 0.500000
vt 0.375000 0.964266
vt 0.375000 0.258230
vt 0.375000 0.285734
vt 0.375000 0.991770
vt 0.625000 0.285734
vt 0.625000 0.000000
vt 0.625000 0.000000
vt 0.625000 0.250000
vt 0.625000 0.991770
vt 0.625000 1.000000
vt 0.625000 0.258230
vt 0.625000 0.964266
vt 0.625000 0.991770
vt 0.625000 0.285734
vt 0.625000 0.258230
vt 0.625000 0.258230
vt 0.625000 0.285734
vt 0.625000 0.991770
vt 0.625000 0.991770
vt 0.625000 0.258230
vt 0.625000 0.964266
vt 0.625000 0.285734
vt 0.625000 0.964266
vt 0.625000 0.000000
vt 0.625000 0.250000
vt 0.625000 0.000000
vt 0.625000 1.000000
vt 0.375000 1.000000
vt 0.375000 0.000000
vt 0.375000 0.250000
vt 0.625000 1.000000
vt 0.375000 1.000000
vt 0.375000 0.750000
vt 0.625000 0.750000
vt 0.375000 0.964266
vt 0.375000 0.750000
vt 0.625000 0.500000
vt 0.375000 0.500000
vt 0.375000 0.500000
vt 0.625000 0.500000
vt 0.375000 0.750000
vt 0.375000 0.285734
vt 0.375000 0.258230
vt 0.375000 0.750000
vt 0.375000 0.258230
vt 0.375000 0.250000
vt 0.375000 1.000000
vt 0.375000 1.000000
vt 0.375000 1.000000
vt 0.375000 0.991770
vt 0.375000 0.500000
vt 0.375000 0.285734
vt 0.375000 0.500000
vt 0.375000 0.250000
vt 0.375000 0.250000
vt 0.375000 0.500000
vt 0.375000 0.000000
vt 0.375000 0.964266
vt 0.375000 0.991770
vn -1.0000 0.0000 0.0000
vn -0.0000 0.0000 -1.0000
vn 1.0000 0.0000 0.0000
vn 0.0000 0.0000 1.0000
vn 0.0000 -1.0000 0.0000
vn 0.0000 1.0000 0.0000
vn 0.6307 0.7760 0.0000
vn -0.9434 0.3316 0.0000
vn -0.9983 0.0579 0.0000
vn 0.9992 0.0400 0.0000
vn 1.0000 0.0015 -0.0000
vn -1.0000 -0.0015 0.0000
usemtl None
s off
f 4/1/1 3/2/1 45/3/1 48/4/1
f 9/5/2 10/6/2 8/7/2 7/8/2
f 6/9/3 5/10/3 55/11/3 56/12/3
f 16/13/4 14/14/4 2/15/4 1/16/4
f 12/17/4 6/9/4 25/18/4 28/19/4
f 17/20/5 15/21/5 10/6/5 18/22/5
f 5/10/4 6/9/4 12/17/4 11/23/4
f 24/24/5 23/25/5 12/17/5 14/14/5
f 3/2/2 4/1/2 15/21/2 13/26/2
f 6/9/3 8/7/3 26/27/3 25/18/3
f 11/23/1 12/17/1 23/25/1 22/28/1
f 20/29/2 17/20/2 18/22/2 19/30/2
f 13/26/3 15/21/3 17/20/3 20/29/3
f 10/6/1 9/5/1 19/30/1 18/22/1
f 22/28/4 23/25/4 24/24/4 21/31/4
f 14/14/3 16/13/3 21/31/3 24/24/3
f 8/7/2 10/6/2 27/32/2 26/27/2
f 4/1/1 2/33/1 29/34/1 30/35/1
f 2/15/4 14/14/4 31/36/4 29/37/4
f 15/21/2 4/1/2 30/35/2 32/38/2
f 28/19/4 31/36/4 14/14/4 12/17/4
f 10/6/2 15/21/2 32/38/2 27/32/2
f 26/27/6 27/32/6 28/19/6 25/18/6
f 30/35/6 29/37/6 31/36/6 32/38/6
f 31/36/4 28/19/4 34/39/4 35/40/4
f 33/41/6 36/42/6 40/43/6 38/44/6
f 28/19/7 27/32/7 33/41/7 34/39/7
f 27/32/2 32/38/2 36/42/2 33/41/2
f 32/38/8 31/36/8 35/40/8 36/42/8
f 40/43/1 39/45/1 43/46/1 44/47/1
f 34/39/6 33/41/6 38/44/6 37/48/6
f 36/42/6 35/40/6 39/45/6 40/43/6
f 35/40/6 34/39/6 37/48/6 39/45/6
f 42/49/6 44/47/6 43/46/6 41/50/6
f 39/45/4 37/48/4 41/50/4 43/46/4
f 38/44/2 40/43/2 44/47/2 42/49/2
f 37/48/3 38/44/3 42/49/3 41/50/3
f 47/51/6 48/4/6 52/52/6 51/53/6
f 1/16/1 2/15/1 47/54/1 46/55/1
f 2/33/1 4/1/1 48/4/1 47/51/1
f 50/56/9 51/53/9 52/52/9 49/57/9
f 48/4/2 45/3/2 49/57/2 52/52/2
f 46/55/4 47/54/4 51/58/4 50/59/4
f 56/12/4 55/11/4 59/60/4 60/61/4
f 5/10/4 11/23/4 66/62/4 63/63/4
f 8/7/3 6/9/3 56/12/3 53/64/3
f 7/8/3 8/7/3 53/64/3 54/65/3
f 58/66/10 57/67/10 60/61/10 59/60/10
f 55/11/11 5/10/11 63/63/11 78/68/11
f 53/64/6 56/12/6 60/61/6 57/67/6
f 54/65/2 53/64/2 57/67/2 58/66/2
f 20/29/2 19/30/2 69/69/2 70/70/2
f 59/60/4 55/11/4 78/68/4 80/71/4
f 3/2/2 13/26/2 67/72/2 62/73/2
f 46/55/4 50/59/4 76/74/4 74/75/4
f 16/13/4 1/16/4 61/76/4 68/77/4
f 9/5/2 7/8/2 64/78/2 65/79/2
f 1/16/12 46/55/12 74/75/12 61/76/12
f 7/8/11 54/65/11 77/80/11 64/78/11
f 49/57/2 45/3/2 73/81/2 75/82/2
f 54/65/2 58/66/2 79/83/2 77/80/2
f 50/56/12 49/57/12 75/82/12 76/84/12
f 11/23/12 22/28/12 72/85/12 66/62/12
f 13/26/11 20/29/11 70/70/11 67/72/11
f 21/31/11 16/13/11 68/77/11 71/86/11
f 58/66/11 59/60/11 80/71/11 79/83/11
f 19/30/12 9/5/12 65/79/12 69/69/12
f 22/28/4 21/31/4 71/86/4 72/85/4
f 45/3/12 3/2/12 62/73/12 73/81/12
