<?xml version="1.0" encoding="utf-8"?>
<!-- Generator: Adobe Illustrator 25.2.3, SVG Export Plug-In . SVG Version: 6.00 Build 0)  -->
<svg version="1.1" id="Layer_1" xmlns="http://www.w3.org/2000/svg" xmlns:xlink="http://www.w3.org/1999/xlink" x="0px" y="0px"
	 viewBox="0 0 639 434" style="enable-background:new 0 0 639 434;" xml:space="preserve">
<style type="text/css">
	.st0{opacity:0.35;}
	.st1{stroke:#000000;stroke-width:3;stroke-miterlimit:10;}
	.st2{stroke:#F6891F;stroke-width:3;stroke-miterlimit:10;}
</style>
<g>
	<g class="st0">
		<path class="st1" d="M293.04,201.23v-97.16h-14.28v-23.1h52.64v23.1h-14.28v97.16H293.04z"/>
		<path class="st1" d="M343.71,193.67c-4.57-5.79-6.86-14.42-6.86-25.9v-41.16c0-9.43,2.71-16.61,8.12-21.56
			c5.41-4.95,12.97-7.42,22.68-7.42c19.69,0,29.54,9.66,29.54,28.98v7.42c0,7.47-0.09,13.53-0.28,18.2h-35.56v19.88
			c0,3.55,0.37,6.32,1.12,8.33c0.75,2.01,2.33,3.01,4.76,3.01c1.87,0,3.2-0.56,3.99-1.68c0.79-1.12,1.26-2.4,1.4-3.85
			c0.14-1.45,0.21-3.57,0.21-6.37v-9.94h24.36v5.88c0,11.95-2.31,20.74-6.93,26.39c-4.62,5.65-12.58,8.47-23.87,8.47
			C355.85,202.35,348.29,199.46,343.71,193.67z M372.83,140.05v-13.16c0-7.37-1.82-11.06-5.46-11.06c-4.11,0-6.16,3.69-6.16,11.06
			v13.16H372.83z"/>
		<path class="st1" d="M408.32,194.44c-2.94-5.27-4.41-12.81-4.41-22.61c0-8.03,1.05-14.19,3.15-18.48c2.1-4.29,5.02-7.44,8.75-9.45
			c3.73-2.01,9.43-4.22,17.08-6.65l6.72-2.24v-0.28v-10.22c0-2.71-0.54-4.78-1.61-6.23c-1.07-1.45-2.36-2.17-3.85-2.17
			c-1.31,0-2.45,0.61-3.43,1.82c-0.98,1.21-1.47,2.85-1.47,4.9v6.16h-23.8v-3.36c0-10.08,2.36-17.27,7.07-21.56
			c4.71-4.29,12.39-6.44,23.03-6.44c8.49,0,15.4,2.22,20.72,6.65c5.32,4.43,7.98,10.71,7.98,18.83v78.12h-24.36v-12.18
			c-1.21,4.2-3.15,7.47-5.81,9.8c-2.66,2.33-5.81,3.5-9.45,3.5C416.7,202.35,411.26,199.72,408.32,194.44z M438.28,181
			c0.79-1.54,1.19-3.43,1.19-5.67v-28.56c-3.64,1.4-6.32,3.17-8.05,5.32c-1.73,2.15-2.59,5.13-2.59,8.96v13.16
			c0,6.07,1.82,9.1,5.46,9.1C436.16,183.31,437.49,182.54,438.28,181z"/>
		<path class="st1" d="M473.63,98.75h23.94v11.9c1.12-4.39,3.03-7.65,5.74-9.8c2.71-2.15,6.53-3.22,11.48-3.22
			c4.01,0,7.49,0.91,10.43,2.73c2.94,1.82,5.02,4.32,6.23,7.49c2.05-3.55,4.34-6.14,6.86-7.77c2.52-1.63,6.02-2.45,10.5-2.45
			c8.03,0,13.6,2.45,16.73,7.35c3.13,4.9,4.69,12.02,4.69,21.35l-0.28,74.9h-24.64v-75.32c0-6.63-1.68-9.94-5.04-9.94
			c-2.33,0-4.01,1.14-5.04,3.43c-1.03,2.29-1.54,5.02-1.54,8.19v73.64h-24.5v-75.32c0-2.89-0.3-5.23-0.91-7
			c-0.61-1.77-1.89-2.66-3.85-2.66c-2.52,0-4.29,1.24-5.32,3.71c-1.03,2.47-1.54,5.44-1.54,8.89v72.38h-23.94V98.75z"/>
		<path class="st1" d="M154.09,362.09c-5.27-5.51-7.91-13.07-7.91-22.68v-55.44c0-11.95,2.38-20.95,7.14-27.02
			c4.76-6.07,12.23-9.1,22.4-9.1c8.87,0,16.01,2.43,21.42,7.28c5.41,4.85,8.12,11.85,8.12,21v20.72h-23.94v-17.78
			c0-3.45-0.42-5.83-1.26-7.14c-0.84-1.31-2.29-1.96-4.34-1.96c-2.15,0-3.62,0.75-4.41,2.24c-0.79,1.49-1.19,3.69-1.19,6.58v60.34
			c0,3.17,0.47,5.48,1.4,6.93c0.93,1.45,2.33,2.17,4.2,2.17c3.73,0,5.6-3.03,5.6-9.1v-21.7h24.22v22.68
			c0,20.16-10.13,30.24-30.38,30.24C166.38,370.35,159.36,367.6,154.09,362.09z"/>
		<path class="st1" d="M215.41,362.44c-2.94-5.27-4.41-12.81-4.41-22.61c0-8.03,1.05-14.19,3.15-18.48c2.1-4.29,5.02-7.44,8.75-9.45
			c3.73-2.01,9.43-4.22,17.08-6.65l6.72-2.24v-0.28v-10.22c0-2.71-0.54-4.78-1.61-6.23c-1.07-1.45-2.36-2.17-3.85-2.17
			c-1.31,0-2.45,0.61-3.43,1.82c-0.98,1.21-1.47,2.85-1.47,4.9v6.16h-23.8v-3.36c0-10.08,2.36-17.27,7.07-21.56
			c4.71-4.29,12.39-6.44,23.03-6.44c8.49,0,15.4,2.22,20.72,6.65c5.32,4.43,7.98,10.71,7.98,18.83v78.12h-24.36v-12.18
			c-1.21,4.2-3.15,7.47-5.81,9.8c-2.66,2.33-5.81,3.5-9.45,3.5C223.78,370.35,218.35,367.72,215.41,362.44z M245.37,349
			c0.79-1.54,1.19-3.43,1.19-5.67v-28.56c-3.64,1.4-6.32,3.17-8.05,5.32c-1.73,2.15-2.59,5.13-2.59,8.96v13.16
			c0,6.07,1.82,9.1,5.46,9.1C243.24,351.31,244.57,350.54,245.37,349z"/>
		<path class="st1" d="M280.72,266.75h24.92v5.46c3.55-4.39,8.45-6.58,14.7-6.58c7.93,0,13.46,2.66,16.59,7.98
			c3.13,5.32,4.69,12.69,4.69,22.12v37.94c0,8.03-0.47,14.58-1.4,19.67c-0.93,5.09-2.99,9.19-6.16,12.32
			c-3.17,3.13-7.98,4.69-14.42,4.69c-6.16,0-10.83-1.73-14-5.18v24.5h-24.92V266.75z M315.86,348.23c0.65-2.05,0.98-5.04,0.98-8.96
			v-43.54c0-3.55-0.33-6.25-0.98-8.12c-0.65-1.87-2.15-2.8-4.48-2.8c-3.83,0-5.74,3.55-5.74,10.64v44.94c0,3.45,0.4,6.14,1.19,8.05
			c0.79,1.91,2.36,2.87,4.69,2.87C313.76,351.31,315.2,350.29,315.86,348.23z"/>
		<path class="st1" d="M358.56,366.29c-2.43-2.71-3.64-7.05-3.64-13.02v-63.98h-6.86v-18.62h6.86v-21.7h23.8v21.7h7v18.62h-7v57.54
			c0,1.77,0.14,3.08,0.42,3.92c0.28,0.84,1.03,1.26,2.24,1.26c0.93,0,1.82-0.05,2.66-0.14c0.84-0.09,1.4-0.14,1.68-0.14v16.8
			c-1.4,0.37-3.43,0.77-6.09,1.19s-5.25,0.63-7.77,0.63C365.42,370.35,360.98,369,358.56,366.29z"/>
		<path class="st1" d="M397.4,363.49c-2.85-4.57-4.27-11.39-4.27-20.44v-76.3h24.64v71.4c0,0.65,0,2.4,0,5.25
			c0,2.85,0.44,4.85,1.33,6.02c0.89,1.17,2.26,1.75,4.13,1.75c2.52,0,4.11-1.05,4.76-3.15c0.65-2.1,0.98-5.11,0.98-9.03v-0.84
			l0.14-71.4h24.36v102.48h-24.5v-10.92c-1.68,4.29-3.64,7.37-5.88,9.24c-2.24,1.87-5.55,2.8-9.94,2.8
			C405.5,370.35,400.25,368.07,397.4,363.49z"/>
		<path class="st1" d="M463.27,266.75h24.5v11.34c1.21-4.01,3.34-7.12,6.37-9.31c3.03-2.19,6.79-3.29,11.27-3.29v20.44
			c-3.45,0-7.26,0.49-11.41,1.47c-4.15,0.98-6.23,2.12-6.23,3.43v78.4h-24.5V266.75z"/>
		<path class="st1" d="M517.45,361.67c-4.57-5.79-6.86-14.42-6.86-25.9v-41.16c0-9.43,2.71-16.61,8.12-21.56
			c5.41-4.95,12.97-7.42,22.68-7.42c19.69,0,29.54,9.66,29.54,28.98v7.42c0,7.47-0.09,13.53-0.28,18.2h-35.56v19.88
			c0,3.55,0.37,6.32,1.12,8.33c0.75,2.01,2.33,3.01,4.76,3.01c1.87,0,3.2-0.56,3.99-1.68c0.79-1.12,1.26-2.4,1.4-3.85
			c0.14-1.45,0.21-3.57,0.21-6.37v-9.94h24.36v5.88c0,11.95-2.31,20.74-6.93,26.39c-4.62,5.65-12.58,8.47-23.87,8.47
			C529.58,370.35,522.02,367.46,517.45,361.67z M546.57,308.05v-13.16c0-7.37-1.82-11.06-5.46-11.06c-4.11,0-6.16,3.69-6.16,11.06
			v13.16H546.57z"/>
	</g>
	<g>
		<g>
			<path class="st2" d="M293.04,175.23V78.07h-14.28v-23.1h52.64v23.1h-14.28v97.16H293.04z"/>
			<path class="st2" d="M343.71,167.67c-4.57-5.79-6.86-14.42-6.86-25.9v-41.16c0-9.43,2.71-16.61,8.12-21.56
				c5.41-4.95,12.97-7.42,22.68-7.42c19.69,0,29.54,9.66,29.54,28.98v7.42c0,7.47-0.09,13.53-0.28,18.2h-35.56v19.88
				c0,3.55,0.37,6.32,1.12,8.33c0.75,2.01,2.33,3.01,4.76,3.01c1.87,0,3.2-0.56,3.99-1.68c0.79-1.12,1.26-2.4,1.4-3.85
				c0.14-1.45,0.21-3.57,0.21-6.37v-9.94h24.36v5.88c0,11.95-2.31,20.74-6.93,26.39c-4.62,5.65-12.58,8.47-23.87,8.47
				C355.85,176.35,348.29,173.46,343.71,167.67z M372.83,114.05v-13.16c0-7.37-1.82-11.06-5.46-11.06c-4.11,0-6.16,3.69-6.16,11.06
				v13.16H372.83z"/>
			<path class="st2" d="M408.32,168.44c-2.94-5.27-4.41-12.81-4.41-22.61c0-8.03,1.05-14.19,3.15-18.48
				c2.1-4.29,5.02-7.44,8.75-9.45c3.73-2.01,9.43-4.22,17.08-6.65l6.72-2.24v-0.28V98.51c0-2.71-0.54-4.78-1.61-6.23
				c-1.07-1.45-2.36-2.17-3.85-2.17c-1.31,0-2.45,0.61-3.43,1.82c-0.98,1.21-1.47,2.85-1.47,4.9v6.16h-23.8v-3.36
				c0-10.08,2.36-17.27,7.07-21.56c4.71-4.29,12.39-6.44,23.03-6.44c8.49,0,15.4,2.22,20.72,6.65c5.32,4.43,7.98,10.71,7.98,18.83
				v78.12h-24.36v-12.18c-1.21,4.2-3.15,7.47-5.81,9.8c-2.66,2.33-5.81,3.5-9.45,3.5C416.7,176.35,411.26,173.72,408.32,168.44z
				 M438.28,155c0.79-1.54,1.19-3.43,1.19-5.67v-28.56c-3.64,1.4-6.32,3.17-8.05,5.32c-1.73,2.15-2.59,5.13-2.59,8.96v13.16
				c0,6.07,1.82,9.1,5.46,9.1C436.16,157.31,437.49,156.54,438.28,155z"/>
			<path class="st2" d="M473.63,72.75h23.94v11.9c1.12-4.39,3.03-7.65,5.74-9.8c2.71-2.15,6.53-3.22,11.48-3.22
				c4.01,0,7.49,0.91,10.43,2.73c2.94,1.82,5.02,4.32,6.23,7.49c2.05-3.55,4.34-6.14,6.86-7.77c2.52-1.63,6.02-2.45,10.5-2.45
				c8.03,0,13.6,2.45,16.73,7.35c3.13,4.9,4.69,12.02,4.69,21.35l-0.28,74.9h-24.64V99.91c0-6.63-1.68-9.94-5.04-9.94
				c-2.33,0-4.01,1.14-5.04,3.43c-1.03,2.29-1.54,5.02-1.54,8.19v73.64h-24.5V99.91c0-2.89-0.3-5.23-0.91-7
				c-0.61-1.77-1.89-2.66-3.85-2.66c-2.52,0-4.29,1.24-5.32,3.71c-1.03,2.47-1.54,5.44-1.54,8.89v72.38h-23.94V72.75z"/>
			<path class="st2" d="M154.09,336.09c-5.27-5.51-7.91-13.07-7.91-22.68v-55.44c0-11.95,2.38-20.95,7.14-27.02
				c4.76-6.07,12.23-9.1,22.4-9.1c8.87,0,16.01,2.43,21.42,7.28c5.41,4.85,8.12,11.85,8.12,21v20.72h-23.94v-17.78
				c0-3.45-0.42-5.83-1.26-7.14c-0.84-1.31-2.29-1.96-4.34-1.96c-2.15,0-3.62,0.75-4.41,2.24c-0.79,1.49-1.19,3.69-1.19,6.58v60.34
				c0,3.17,0.47,5.48,1.4,6.93c0.93,1.45,2.33,2.17,4.2,2.17c3.73,0,5.6-3.03,5.6-9.1v-21.7h24.22v22.68
				c0,20.16-10.13,30.24-30.38,30.24C166.38,344.35,159.36,341.6,154.09,336.09z"/>
			<path class="st2" d="M215.41,336.44c-2.94-5.27-4.41-12.81-4.41-22.61c0-8.03,1.05-14.19,3.15-18.48
				c2.1-4.29,5.02-7.44,8.75-9.45c3.73-2.01,9.43-4.22,17.08-6.65l6.72-2.24v-0.28v-10.22c0-2.71-0.54-4.78-1.61-6.23
				c-1.07-1.45-2.36-2.17-3.85-2.17c-1.31,0-2.45,0.61-3.43,1.82c-0.98,1.21-1.47,2.85-1.47,4.9v6.16h-23.8v-3.36
				c0-10.08,2.36-17.27,7.07-21.56c4.71-4.29,12.39-6.44,23.03-6.44c8.49,0,15.4,2.22,20.72,6.65c5.32,4.43,7.98,10.71,7.98,18.83
				v78.12h-24.36v-12.18c-1.21,4.2-3.15,7.47-5.81,9.8c-2.66,2.33-5.81,3.5-9.45,3.5C223.78,344.35,218.35,341.72,215.41,336.44z
				 M245.37,323c0.79-1.54,1.19-3.43,1.19-5.67v-28.56c-3.64,1.4-6.32,3.17-8.05,5.32c-1.73,2.15-2.59,5.13-2.59,8.96v13.16
				c0,6.07,1.82,9.1,5.46,9.1C243.24,325.31,244.57,324.54,245.37,323z"/>
			<path class="st2" d="M280.72,240.75h24.92v5.46c3.55-4.39,8.45-6.58,14.7-6.58c7.93,0,13.46,2.66,16.59,7.98
				c3.13,5.32,4.69,12.69,4.69,22.12v37.94c0,8.03-0.47,14.58-1.4,19.67c-0.93,5.09-2.99,9.19-6.16,12.32
				c-3.17,3.13-7.98,4.69-14.42,4.69c-6.16,0-10.83-1.73-14-5.18v24.5h-24.92V240.75z M315.86,322.23c0.65-2.05,0.98-5.04,0.98-8.96
				v-43.54c0-3.55-0.33-6.25-0.98-8.12c-0.65-1.87-2.15-2.8-4.48-2.8c-3.83,0-5.74,3.55-5.74,10.64v44.94c0,3.45,0.4,6.14,1.19,8.05
				c0.79,1.91,2.36,2.87,4.69,2.87C313.76,325.31,315.2,324.29,315.86,322.23z"/>
			<path class="st2" d="M358.56,340.29c-2.43-2.71-3.64-7.05-3.64-13.02v-63.98h-6.86v-18.62h6.86v-21.7h23.8v21.7h7v18.62h-7v57.54
				c0,1.77,0.14,3.08,0.42,3.92c0.28,0.84,1.03,1.26,2.24,1.26c0.93,0,1.82-0.05,2.66-0.14c0.84-0.09,1.4-0.14,1.68-0.14v16.8
				c-1.4,0.37-3.43,0.77-6.09,1.19s-5.25,0.63-7.77,0.63C365.42,344.35,360.98,343,358.56,340.29z"/>
			<path class="st2" d="M397.4,337.49c-2.85-4.57-4.27-11.39-4.27-20.44v-76.3h24.64v71.4c0,0.65,0,2.4,0,5.25
				c0,2.85,0.44,4.85,1.33,6.02c0.89,1.17,2.26,1.75,4.13,1.75c2.52,0,4.11-1.05,4.76-3.15c0.65-2.1,0.98-5.11,0.98-9.03v-0.84
				l0.14-71.4h24.36v102.48h-24.5v-10.92c-1.68,4.29-3.64,7.37-5.88,9.24c-2.24,1.87-5.55,2.8-9.94,2.8
				C405.5,344.35,400.25,342.07,397.4,337.49z"/>
			<path class="st2" d="M463.27,240.75h24.5v11.34c1.21-4.01,3.34-7.12,6.37-9.31c3.03-2.19,6.79-3.29,11.27-3.29v20.44
				c-3.45,0-7.26,0.49-11.41,1.47c-4.15,0.98-6.23,2.12-6.23,3.43v78.4h-24.5V240.75z"/>
			<path class="st2" d="M517.45,335.67c-4.57-5.79-6.86-14.42-6.86-25.9v-41.16c0-9.43,2.71-16.61,8.12-21.56
				c5.41-4.95,12.97-7.42,22.68-7.42c19.69,0,29.54,9.66,29.54,28.98v7.42c0,7.47-0.09,13.53-0.28,18.2h-35.56v19.88
				c0,3.55,0.37,6.32,1.12,8.33c0.75,2.01,2.33,3.01,4.76,3.01c1.87,0,3.2-0.56,3.99-1.68c0.79-1.12,1.26-2.4,1.4-3.85
				c0.14-1.45,0.21-3.57,0.21-6.37v-9.94h24.36v5.88c0,11.95-2.31,20.74-6.93,26.39c-4.62,5.65-12.58,8.47-23.87,8.47
				C529.58,344.35,522.02,341.46,517.45,335.67z M546.57,282.05v-13.16c0-7.37-1.82-11.06-5.46-11.06c-4.11,0-6.16,3.69-6.16,11.06
				v13.16H546.57z"/>
		</g>
	</g>
</g>
</svg>
